<svg id="Capa_1" data-name="Capa 1" xmlns="http://www.w3.org/2000/svg" viewBox="0 0 206.6 112.15"><defs><style>.cls-1{fill:#8e8e8e;}</style></defs><title>logo goplek</title><path class="cls-1" d="M32.87,43.45L31.78,31.75s-1.27-3.81-7-3.81c0,0-4.58-.23-2.56,6,0,0-3.75-4.76-7.08-4.76,0,0-6.39-1.09-9.79,6.47,0,0-4.36,9.94-.89,25.8,0,0,3.2,15.31,11.36,17.63,0,0,4.56,1.16,7.9-3.55,0,0,3.06-5.31,3.13-5.71l1,12.66s0,5.31-3.19,3.34c0,0-2-1.84-2.25-2.18,0,0-1.43-2-6.47-1.36,0,0-4.62.07-3.95,3.33,0,0,.07,2.86,4.56,4.08a2.58,2.58,0,0,1,1.43.89S23.46,94.12,29.24,93c0,0,6.87.27,6.46-10.21C35.7,82.74,35.32,63.32,32.87,43.45Zm-14,25.41c-2.45,2-3.9-1-3.9-1-6.72-16.24-.54-27-0.54-27,2.64-3,5.45,2,5.45,2C27.7,58.24,18.9,68.86,18.9,68.86Z" transform="translate(-3.13 -4.38)"/><path class="cls-1" d="M65.63,38.91s-4.9-13.6-18.42-9.26c0,0-9.62,3.09-9.62,23.32,0,0-.45,21.05,11.25,26.41,0,0,12.35,5.53,17.34-10.35A50.83,50.83,0,0,0,65.63,38.91ZM57.91,64.14c-1.08,7.17-3.26,8.35-3.26,8.35C50.75,73.4,49.2,67,49.2,67c-4.54-19.79,1.73-28.22,1.73-28.22,3.45-3.18,5.63,1.63,5.63,1.63C60.64,48.53,57.91,64.14,57.91,64.14Z" transform="translate(-3.13 -4.38)"/><path class="cls-1" d="M92.22,29.21s-6.08-2.54-11.34,5.9c0,0,.36-3.09.72-3.36s0.81-3.81-3.82-3.81c0,0-5.71-.54-6.8,2.82a4.18,4.18,0,0,0,.63,3.9,8.09,8.09,0,0,1,.64,3.08L73.07,87a22.64,22.64,0,0,1-.46,2.27c-0.17.54-1.81,5.35,3,6.81,0,0,6.17,1.18,8.08-3.63,0,0,1.09-1.36-.91-4.9a8.92,8.92,0,0,1-.72-4.09L82,74.22s4.27,6.71,8.44,4.89c0,0,9.34-.81,11.8-22.5C102.2,56.61,104.74,32.2,92.22,29.21ZM89.58,68.68c-3.17,4.9-5.44-4.8-5.44-4.8A34.86,34.86,0,0,1,86,39.46c2.45-3.18,4.72.81,4.72,0.81C92.59,43.09,92,50.52,92,50.52,92.85,61.51,89.58,68.68,89.58,68.68Z" transform="translate(-3.13 -4.38)"/><path class="cls-1" d="M108.56,7.88l-1.64,64a27.87,27.87,0,0,1-.91,4c-0.36.72-1.08,5,4.18,6.08,0,0,5.54,1,7.53-3.54,0,0,.54-1.27-0.54-4.81,0,0-.45-3.81-0.18-4.62s2.36-52.54,2.36-52.54,0.91-4.71,1.53-5.62c0,0,1.82-5.72-3.44-6.35,0,0-7.8-.73-8.89,3.45" transform="translate(-3.13 -4.38)"/><path class="cls-1" d="M151.2,40.64s0.55-12.07-10.25-11.8c0,0-13.52-2.27-18.06,23.59,0,0-3.45,19.88,6.17,26.6,0,0,3.72,4.17,14.7-1.1,0,0,10.62-6.35,5.62-12.42,0,0-3.35-3.64-5.8-.19L142.4,68.4S136.23,75.57,133,71A28.27,28.27,0,0,1,131.51,66S149.93,59.61,151.2,40.64ZM131.78,57.52s0.72-19.42,9.8-18.69c0,0,3.27.18,1.1,6.71C142.68,45.54,138.95,54.7,131.78,57.52Z" transform="translate(-3.13 -4.38)"/><path class="cls-1" d="M158.82,8.33l-6.25,65.34s-2.09,5.53,1,7c0,0,6.26,2.44,9.52-3.72a8.65,8.65,0,0,1-.72-2.54c0.09-.64.81-8.08,0.81-8.08l13.35,10.53,0.82,0.81s1.54,3.72,4.8,2.45c0,0,6.81-1.46,6.81-8,0,0,.45-2.36-2.91-3.17l-1.54-.54L171.44,57.24l20.87-20.69s1.82-1.91-.82-5.35c0,0-4.36-5.17-9-.81,0,0-2.63,3.54-2.73,3.89s-14.51,13.8-14.51,13.8L168.71,17s0.73-3.26,1.19-3.63,2.45-5.17-1.28-7.08c0,0-8.71-2.81-9.8,2.09" transform="translate(-3.13 -4.38)"/><polygon class="cls-1" points="192.54 37.97 192.54 65.93 206.6 52.41 192.54 37.97"/><path class="cls-1" d="M54.68,105.19l-3.26,11.12H49.7l-2.57-8.53-2.62,8.53H42.74l-3.11-11.12h1.76l2.39,8.88,2.68-8.74h1.38L50.58,114l2.34-8.8h1.76Z" transform="translate(-3.13 -4.38)"/><path class="cls-1" d="M69.47,116.31H62.41V105.19h6.9v1.59H64.13v2.94h4.08v1.59H64.13v3.42h5.34v1.59Z" transform="translate(-3.13 -4.38)"/><path class="cls-1" d="M81.62,116.31h-4V105.19h2.68a12.24,12.24,0,0,1,1.82.11,3.43,3.43,0,0,1,1.32.42,1.93,1.93,0,0,1,.8.85,3.08,3.08,0,0,1,.27,1.4,4.18,4.18,0,0,1-.18,1.34,2.81,2.81,0,0,1-.74,1.08,3,3,0,0,1,1.46,1,2.79,2.79,0,0,1,.44,1.63Q85.52,116.31,81.62,116.31Zm-0.73-9.65H79.34v3.1h1.92a3.74,3.74,0,0,0,.59,0,1.24,1.24,0,0,0,.51-0.21,1.17,1.17,0,0,0,.37-0.49,2.09,2.09,0,0,0,.15-0.85,1.28,1.28,0,0,0-.5-1.2A2.94,2.94,0,0,0,80.9,106.66Zm0.72,4.54H79.34v3.61h1.72a4.62,4.62,0,0,0,2.05-.35,1.44,1.44,0,0,0,.67-1.4C83.77,111.83,83,111.21,81.61,111.21Z" transform="translate(-3.13 -4.38)"/><path class="cls-1" d="M106.79,116.53a7.44,7.44,0,0,1-3.65-.75l0.2-2a5.47,5.47,0,0,0,3.48,1.11,3.65,3.65,0,0,0,1.76-.37,1.24,1.24,0,0,0,.67-1.17,1.33,1.33,0,0,0-.16-0.65,1.9,1.9,0,0,0-.43-0.51,3,3,0,0,0-.6-0.38,6,6,0,0,0-.72-0.29l-1.76-.59-0.78-.32a4.31,4.31,0,0,1-.62-0.32,3.3,3.3,0,0,1-.6-0.48,2.44,2.44,0,0,1-.45-0.65,1.89,1.89,0,0,1-.17-0.83,3.89,3.89,0,0,1,.19-1.22,2.88,2.88,0,0,1,.67-1.1,3.58,3.58,0,0,1,1.24-.8A5.17,5.17,0,0,1,107,105a7.33,7.33,0,0,1,1,.07c0.35,0,.68.11,1,0.18a7.23,7.23,0,0,1,.87.25,3.56,3.56,0,0,1,.62.29l-0.17,1.76a7.4,7.4,0,0,0-3.2-1,4.42,4.42,0,0,0-.87.09,3,3,0,0,0-.75.26,1.42,1.42,0,0,0-.52.46,1.12,1.12,0,0,0-.2.67,1.1,1.1,0,0,0,.25.77,2.21,2.21,0,0,0,.75.49,11.5,11.5,0,0,0,1.23.44c0.49,0.15,1.06.35,1.71,0.62a9.25,9.25,0,0,1,.86.4,2.9,2.9,0,0,1,.77.57,2.79,2.79,0,0,1,.56.85,3.1,3.1,0,0,1,.22,1.24,3.91,3.91,0,0,1-.16,1.06,2.31,2.31,0,0,1-.63,1,3.59,3.59,0,0,1-1.32.77A6.85,6.85,0,0,1,106.79,116.53Z" transform="translate(-3.13 -4.38)"/><path class="cls-1" d="M126.38,106.78h-3.21v9.53h-1.72v-9.53h-3.19v-1.59h8.12v1.59Z" transform="translate(-3.13 -4.38)"/><path class="cls-1" d="M134.15,111.58v-6.38h1.69v5.66a10.69,10.69,0,0,0,.12,1.58,3.82,3.82,0,0,0,.44,1.3,2.36,2.36,0,0,0,.89.88,3.5,3.5,0,0,0,3,0,2.38,2.38,0,0,0,.89-0.89,3.74,3.74,0,0,0,.44-1.3,9.87,9.87,0,0,0,.12-1.57v-5.66h1.68v6.38a5.29,5.29,0,0,1-1.16,3.64,5.18,5.18,0,0,1-6.89,0A5.3,5.3,0,0,1,134.15,111.58Z" transform="translate(-3.13 -4.38)"/><path class="cls-1" d="M156.24,116.31h-4.13V105.19h4.13a6.31,6.31,0,0,1,2.22.38,5,5,0,0,1,1.75,1.1,4.89,4.89,0,0,1,1.13,1.75,6.89,6.89,0,0,1,0,4.66,4.83,4.83,0,0,1-2.86,2.86A6.36,6.36,0,0,1,156.24,116.31Zm0-9.53h-2.45v7.94h2.45a3.46,3.46,0,0,0,2.72-1.06,4.95,4.95,0,0,0,0-5.82A3.46,3.46,0,0,0,156.24,106.78Z" transform="translate(-3.13 -4.38)"/><path class="cls-1" d="M171.7,116.31H170V105.19h1.71v11.12Z" transform="translate(-3.13 -4.38)"/><path class="cls-1" d="M189.32,114.94a5.21,5.21,0,0,1-3.94,1.59,5.78,5.78,0,0,1-2.2-.41,5,5,0,0,1-1.74-1.18,5.33,5.33,0,0,1-1.13-1.83,7,7,0,0,1,0-4.74,5.33,5.33,0,0,1,1.13-1.83,5,5,0,0,1,1.74-1.18,5.77,5.77,0,0,1,2.2-.41,5.64,5.64,0,0,1,2.21.42,5.05,5.05,0,0,1,1.73,1.18,5.33,5.33,0,0,1,1.14,1.83,6.64,6.64,0,0,1,.4,2.35A5.75,5.75,0,0,1,189.32,114.94Zm-1.25-7.22a3.23,3.23,0,0,0-2.69-1.18,3.72,3.72,0,0,0-1.55.31,3.14,3.14,0,0,0-1.14.87,3.74,3.74,0,0,0-.71,1.33,5.69,5.69,0,0,0-.24,1.68,5.77,5.77,0,0,0,.24,1.7,3.69,3.69,0,0,0,.71,1.32,3.21,3.21,0,0,0,1.14.86,3.63,3.63,0,0,0,1.55.31,3.67,3.67,0,0,0,1.56-.32,3.21,3.21,0,0,0,1.14-.87,3.76,3.76,0,0,0,.7-1.32,5.57,5.57,0,0,0,.24-1.68A4.62,4.62,0,0,0,188.07,107.73Z" transform="translate(-3.13 -4.38)"/></svg>